<?xml version="1.0" standalone="no"?>
<!DOCTYPE svg PUBLIC "-//W3C//DTD SVG 20010904//EN"
 "http://www.w3.org/TR/2001/REC-SVG-20010904/DTD/svg10.dtd">
<svg version="1.0" xmlns="http://www.w3.org/2000/svg"
 width="700.000000pt" height="700.000000pt" viewBox="0 0 700.000000 700.000000"
 preserveAspectRatio="xMidYMid meet">
<metadata>
Created by potrace 1.14, written by Peter Selinger 2001-2017
</metadata>
<g transform="translate(0.000000,700.000000) scale(0.100000,-0.100000)"
fill="#000000" stroke="none">
<path d="M3255 6954 c-268 -27 -413 -50 -604 -99 -608 -153 -1148 -461 -1597
-909 -552 -553 -883 -1228 -990 -2021 -23 -165 -26 -634 -6 -800 35 -282 102
-567 193 -814 63 -171 215 -481 309 -631 583 -927 1550 -1522 2630 -1620 149
-13 341 -13 377 1 104 39 148 172 90 271 -45 77 -82 90 -286 99 -785 35 -1494
345 -2045 895 -479 479 -771 1059 -878 1744 -19 126 -22 184 -22 435 0 314 10
417 69 680 96 431 318 890 601 1245 96 121 360 382 484 480 360 286 803 499
1235 595 263 59 366 69 680 69 251 0 309 -3 435 -23 231 -35 463 -95 651 -166
992 -379 1733 -1253 1933 -2281 41 -213 56 -379 56 -626 0 -804 -172 -1320
-496 -1490 -98 -52 -188 -72 -290 -65 -170 12 -301 66 -414 173 -136 129 -212
294 -267 579 -14 76 -17 183 -22 700 l-6 610 -25 43 c-60 106 -196 129 -287
49 -64 -56 -63 -49 -63 -549 0 -255 -5 -490 -10 -537 -24 -187 -88 -318 -220
-452 -96 -97 -184 -154 -305 -196 l-80 -28 -556 -3 c-643 -3 -642 -3 -809 79
-91 45 -117 64 -195 143 -73 73 -100 109 -138 182 -85 167 -87 180 -87 789 0
573 2 600 55 726 83 198 263 366 467 433 115 39 221 46 712 46 446 0 449 0
488 22 124 70 122 257 -4 328 l-43 25 -510 0 c-552 0 -582 -2 -750 -56 -369
-118 -657 -421 -763 -805 l-27 -99 0 -620 0 -620 27 -98 c55 -200 158 -377
303 -522 145 -145 322 -248 522 -303 l98 -27 620 0 620 0 98 27 c118 33 284
110 375 175 36 26 99 78 139 116 62 59 74 67 79 51 156 -432 450 -686 867
-750 125 -19 250 -14 367 16 590 151 910 821 910 1904 0 340 -27 572 -102 870
-124 495 -338 924 -672 1341 -102 129 -372 399 -501 501 -522 417 -1102 665
-1755 750 -118 15 -570 27 -665 18z"/>
</g>
</svg>
